<svg width="324.001" height="97.2" viewBox="0 0 324.001 97.2" xmlns="http://www.w3.org/2000/svg"><g id="svgGroup" stroke-linecap="round" fill-rule="evenodd" font-size="9pt" stroke="#000" stroke-width="0.25mm" fill="#000" style="stroke:#000;stroke-width:0.25mm;fill:#000"><path d="M 53.201 8.5 L 49.701 16.4 Q 45.501 14.1 41.151 12.6 A 27.36 27.36 0 0 0 35.051 11.279 A 34.225 34.225 0 0 0 31.501 11.1 A 20.13 20.13 0 0 0 24.014 12.471 A 18.919 18.919 0 0 0 20.301 14.45 A 20.295 20.295 0 0 0 14.976 19.868 A 27.457 27.457 0 0 0 12.551 24.3 A 31.614 31.614 0 0 0 10.505 31.031 Q 9.902 34.162 9.751 37.754 A 58.311 58.311 0 0 0 9.701 40.2 Q 9.701 47.509 11.669 52.963 A 26.036 26.036 0 0 0 12.301 54.55 A 24.18 24.18 0 0 0 15.233 59.597 A 19.102 19.102 0 0 0 19.501 63.7 A 17.93 17.93 0 0 0 29.31 66.886 A 21.993 21.993 0 0 0 30.101 66.9 A 22.762 22.762 0 0 0 35.698 66.237 A 18.835 18.835 0 0 0 40.051 64.55 A 40.361 40.361 0 0 0 43.053 62.766 Q 45.338 61.263 46.901 59.7 L 46.901 44.4 L 32.401 44.4 L 32.401 36.9 L 55.901 36.9 L 55.901 74 L 47.501 74 L 47.501 67 A 35.883 35.883 0 0 1 43.122 70.292 A 47.354 47.354 0 0 1 39.001 72.65 A 23.594 23.594 0 0 1 29.594 75.15 A 28.131 28.131 0 0 1 27.901 75.2 A 26.572 26.572 0 0 1 18.588 73.6 A 24.511 24.511 0 0 1 13.501 71 Q 7.201 66.8 3.601 59.05 A 37.529 37.529 0 0 1 0.693 49.479 A 51.837 51.837 0 0 1 0.001 40.8 A 56.301 56.301 0 0 1 0.836 30.882 A 42.572 42.572 0 0 1 3.801 21.05 A 32.73 32.73 0 0 1 9.585 12.102 A 29.455 29.455 0 0 1 14.751 7.65 Q 21.901 2.8 32.001 2.8 Q 38.501 2.8 43.601 4.4 Q 48.701 6 53.201 8.5 Z M 192.401 92.8 L 195.701 85 A 20.562 20.562 0 0 0 199.517 87.373 A 24.737 24.737 0 0 0 201.301 88.15 Q 204.06 89.228 207.86 89.376 A 31.788 31.788 0 0 0 209.101 89.4 A 21.701 21.701 0 0 0 213.621 88.957 Q 216.522 88.339 218.722 86.859 A 12.576 12.576 0 0 0 220.251 85.65 A 11.352 11.352 0 0 0 223.158 81.157 Q 224.301 78.056 224.301 73.7 L 224.301 67.3 Q 222.301 69.7 218.551 71.85 Q 214.801 74 209.601 74 Q 203.701 74 198.401 70.95 A 22.236 22.236 0 0 1 191.108 64.112 A 27.437 27.437 0 0 1 189.801 62 A 25.181 25.181 0 0 1 187.088 54.376 A 35.033 35.033 0 0 1 186.501 47.8 A 32.06 32.06 0 0 1 187.418 39.992 A 26.682 26.682 0 0 1 189.751 33.9 A 25.706 25.706 0 0 1 195.814 26.278 A 24.448 24.448 0 0 1 198.501 24.3 Q 204.001 20.8 210.601 20.8 A 22.366 22.366 0 0 1 215.421 21.301 A 18.715 18.715 0 0 1 218.601 22.3 A 25.705 25.705 0 0 1 222.429 24.268 A 20.998 20.998 0 0 1 224.801 26 L 224.801 22 L 233.001 22 L 233.001 72.8 Q 233.001 81.4 230.001 86.8 Q 227.001 92.2 221.651 94.7 A 25.811 25.811 0 0 1 215.046 96.721 A 35.243 35.243 0 0 1 209.101 97.2 Q 204.501 97.2 200.151 96.1 A 27.232 27.232 0 0 1 194.85 94.183 A 23.518 23.518 0 0 1 192.401 92.8 Z M 323.701 51.7 L 287.301 51.7 A 24.088 24.088 0 0 0 288.44 56.725 Q 289.776 60.538 292.401 63.1 Q 296.601 67.2 303.501 67.2 Q 308.001 67.2 311.601 66.25 Q 315.201 65.3 318.501 63.8 L 320.601 71.5 A 40.77 40.77 0 0 1 316.266 73.126 A 51.863 51.863 0 0 1 312.501 74.15 A 38.914 38.914 0 0 1 307.409 74.969 A 52.025 52.025 0 0 1 302.401 75.2 A 28.318 28.318 0 0 1 294.654 74.195 A 21.108 21.108 0 0 1 284.651 68.05 A 23.521 23.521 0 0 1 279.445 58.51 Q 278.101 53.845 278.101 48 A 35.359 35.359 0 0 1 278.933 40.178 A 28.84 28.84 0 0 1 281.051 34.05 A 24.642 24.642 0 0 1 286.067 26.968 A 22.887 22.887 0 0 1 289.301 24.35 A 21.048 21.048 0 0 1 299.56 20.878 A 26.205 26.205 0 0 1 301.601 20.8 Q 309.101 20.8 314.051 24.05 Q 319.001 27.3 321.501 32.8 A 28.185 28.185 0 0 1 323.927 42.664 A 33.434 33.434 0 0 1 324.001 44.9 A 75.204 75.204 0 0 1 323.71 51.597 A 69.426 69.426 0 0 1 323.701 51.7 Z M 248.001 57.7 L 248.001 0 L 257.001 0 L 257.001 56.8 A 20.644 20.644 0 0 0 257.189 59.688 Q 257.651 62.952 259.251 64.8 A 7.363 7.363 0 0 0 263.834 67.276 A 10.724 10.724 0 0 0 265.501 67.4 Q 267.401 67.4 269.251 66.95 A 22.192 22.192 0 0 0 270.714 66.544 Q 271.649 66.247 272.401 65.9 L 274.601 73.2 Q 273.201 73.822 271.289 74.323 A 34.978 34.978 0 0 1 270.151 74.6 A 23.816 23.816 0 0 1 266.995 75.085 A 30.514 30.514 0 0 1 264.301 75.2 A 20.862 20.862 0 0 1 259.41 74.646 A 17.544 17.544 0 0 1 256.001 73.45 A 12.683 12.683 0 0 1 250.676 68.685 A 15.856 15.856 0 0 1 250.151 67.8 Q 248.416 64.654 248.081 60.012 A 32.105 32.105 0 0 1 248.001 57.7 Z M 79.001 71.75 A 24.559 24.559 0 0 0 83.599 73.84 Q 87.654 75.2 92.301 75.2 Q 99.701 75.2 105.551 71.8 Q 111.401 68.4 114.801 62.25 A 26.255 26.255 0 0 0 117.454 55.109 A 34.184 34.184 0 0 0 118.201 47.8 A 34.542 34.542 0 0 0 117.715 41.891 A 25.795 25.795 0 0 0 114.751 33.45 Q 111.301 27.4 105.451 24.1 A 24.848 24.848 0 0 0 100.809 22.073 A 27.738 27.738 0 0 0 92.301 20.8 A 31.325 31.325 0 0 0 90.72 20.839 A 26.169 26.169 0 0 0 79.101 24.1 Q 73.201 27.4 69.801 33.5 A 26.023 26.023 0 0 0 67.051 41.09 A 35.006 35.006 0 0 0 66.401 48 A 34.82 34.82 0 0 0 66.666 52.354 A 27.451 27.451 0 0 0 69.751 62.15 Q 73.101 68.3 79.001 71.75 Z M 138.801 71.75 A 24.559 24.559 0 0 0 143.399 73.84 Q 147.454 75.2 152.101 75.2 Q 159.501 75.2 165.351 71.8 Q 171.201 68.4 174.601 62.25 A 26.255 26.255 0 0 0 177.254 55.109 A 34.184 34.184 0 0 0 178.001 47.8 A 34.542 34.542 0 0 0 177.515 41.891 A 25.795 25.795 0 0 0 174.551 33.45 Q 171.101 27.4 165.251 24.1 A 24.848 24.848 0 0 0 160.609 22.073 A 27.738 27.738 0 0 0 152.101 20.8 A 31.325 31.325 0 0 0 150.52 20.839 A 26.169 26.169 0 0 0 138.901 24.1 Q 133.001 27.4 129.601 33.5 A 26.023 26.023 0 0 0 126.851 41.09 A 35.006 35.006 0 0 0 126.201 48 A 34.82 34.82 0 0 0 126.466 52.354 A 27.451 27.451 0 0 0 129.551 62.15 Q 132.901 68.3 138.801 71.75 Z M 92.301 67.2 Q 100.201 67.2 104.601 61.85 A 18.802 18.802 0 0 0 108.42 53.76 A 27.105 27.105 0 0 0 109.001 48 Q 109.001 42.8 106.801 38.45 A 19.198 19.198 0 0 0 102.629 32.881 A 18.17 18.17 0 0 0 100.851 31.45 Q 97.101 28.8 92.301 28.8 A 19.249 19.249 0 0 0 87.074 29.472 A 14.037 14.037 0 0 0 80.001 34 A 17.878 17.878 0 0 0 76.327 41.374 Q 75.601 44.306 75.601 47.8 Q 75.601 53 77.801 57.45 A 19.437 19.437 0 0 0 81.33 62.49 A 17.627 17.627 0 0 0 83.751 64.55 Q 87.501 67.2 92.301 67.2 Z M 152.101 67.2 Q 160.001 67.2 164.401 61.85 A 18.802 18.802 0 0 0 168.22 53.76 A 27.105 27.105 0 0 0 168.801 48 Q 168.801 42.8 166.601 38.45 A 19.198 19.198 0 0 0 162.429 32.881 A 18.17 18.17 0 0 0 160.651 31.45 Q 156.901 28.8 152.101 28.8 A 19.249 19.249 0 0 0 146.874 29.472 A 14.037 14.037 0 0 0 139.801 34 A 17.878 17.878 0 0 0 136.127 41.374 Q 135.401 44.306 135.401 47.8 Q 135.401 53 137.601 57.45 A 19.437 19.437 0 0 0 141.13 62.49 A 17.627 17.627 0 0 0 143.551 64.55 Q 147.301 67.2 152.101 67.2 Z M 224.001 60 L 224.001 32.8 Q 221.835 31.225 218.797 29.941 A 36.018 36.018 0 0 0 218.701 29.9 A 16.249 16.249 0 0 0 214.897 28.849 A 22.135 22.135 0 0 0 211.501 28.6 Q 207.401 28.6 203.801 30.8 Q 200.201 33 197.951 37.15 Q 195.701 41.3 195.701 47.3 A 24.32 24.32 0 0 0 196.179 52.236 A 18.311 18.311 0 0 0 197.951 57.2 A 18.576 18.576 0 0 0 200.862 61.275 A 15.802 15.802 0 0 0 203.801 63.7 Q 207.401 66 211.601 66 A 15.276 15.276 0 0 0 216.179 65.332 A 13.606 13.606 0 0 0 218.801 64.2 A 20.855 20.855 0 0 0 221.782 62.184 A 16.309 16.309 0 0 0 224.001 60 Z M 287.201 44.4 L 315.701 44.4 A 24.355 24.355 0 0 0 315.296 39.815 Q 314.8 37.231 313.696 35.207 A 12.422 12.422 0 0 0 311.901 32.7 A 12.488 12.488 0 0 0 304.94 28.924 A 18.395 18.395 0 0 0 301.401 28.6 A 13.58 13.58 0 0 0 296.289 29.535 A 12.524 12.524 0 0 0 291.801 32.65 Q 288.001 36.7 287.201 44.4 Z" vector-effect="non-scaling-stroke"/></g></svg>